<svg xmlns="http://www.w3.org/2000/svg" width="500" height="300">
  <rect x="20" y="20" width="120" height="60" fill="#cce5ff" stroke="#000"/>
  <text x="80" y="55" text-anchor="middle" font-size="12">Upload</text>

  <rect x="180" y="20" width="120" height="60" fill="#cce5ff" stroke="#000"/>
  <text x="240" y="55" text-anchor="middle" font-size="12">Extraction</text>

  <rect x="340" y="20" width="120" height="60" fill="#cce5ff" stroke="#000"/>
  <text x="400" y="55" text-anchor="middle" font-size="12">Summaries</text>

  <rect x="20" y="130" width="120" height="60" fill="#cce5ff" stroke="#000"/>
  <text x="80" y="165" text-anchor="middle" font-size="12">Letter Gen</text>

  <rect x="180" y="130" width="120" height="60" fill="#cce5ff" stroke="#000"/>
  <text x="240" y="165" text-anchor="middle" font-size="12">Rule Check</text>

  <rect x="340" y="130" width="120" height="60" fill="#cce5ff" stroke="#000"/>
  <text x="400" y="165" text-anchor="middle" font-size="12">Outcome Store</text>

  <line x1="140" y1="50" x2="180" y2="50" stroke="#000" marker-end="url(#arrow)"/>
  <line x1="300" y1="50" x2="340" y2="50" stroke="#000" marker-end="url(#arrow)"/>
  <line x1="140" y1="160" x2="180" y2="160" stroke="#000" marker-end="url(#arrow)"/>
  <line x1="300" y1="160" x2="340" y2="160" stroke="#000" marker-end="url(#arrow)"/>

  <defs>
    <marker id="arrow" markerWidth="10" markerHeight="10" refX="5" refY="3" orient="auto">
      <path d="M0,0 L0,6 L9,3 z" fill="#000" />
    </marker>
  </defs>
</svg>
